G04 #@! TF.GenerationSoftware,KiCad,Pcbnew,5.1.4-e60b266~84~ubuntu18.04.1*
G04 #@! TF.CreationDate,2019-09-29T18:28:35-04:00*
G04 #@! TF.ProjectId,ib4,6962342e-6b69-4636-9164-5f7063625858,rev?*
G04 #@! TF.SameCoordinates,Original*
G04 #@! TF.FileFunction,Legend,Top*
G04 #@! TF.FilePolarity,Positive*
%FSLAX46Y46*%
G04 Gerber Fmt 4.6, Leading zero omitted, Abs format (unit mm)*
G04 Created by KiCad (PCBNEW 5.1.4-e60b266~84~ubuntu18.04.1) date 2019-09-29 18:28:35*
%MOMM*%
%LPD*%
G04 APERTURE LIST*
%ADD10C,0.120000*%
%ADD11C,0.138988*%
%ADD12C,0.150000*%
G04 APERTURE END LIST*
D10*
X108420000Y-28250000D02*
X108420000Y-26920000D01*
X108420000Y-26920000D02*
X109750000Y-26920000D01*
X111020000Y-26920000D02*
X118700000Y-26920000D01*
X118700000Y-29580000D02*
X118700000Y-26920000D01*
X111020000Y-29580000D02*
X118700000Y-29580000D01*
X111020000Y-29580000D02*
X111020000Y-26920000D01*
X113026527Y-38776527D02*
X113698278Y-39448278D01*
X117085320Y-42835320D02*
X116413568Y-42163568D01*
X113047740Y-40098816D02*
X115763030Y-42814106D01*
X114348816Y-38797740D02*
X113047740Y-40098816D01*
X117064106Y-41513030D02*
X114348816Y-38797740D01*
X115763030Y-42814106D02*
X117064106Y-41513030D01*
X115763030Y-50314106D02*
X117064106Y-49013030D01*
X117064106Y-49013030D02*
X114348816Y-46297740D01*
X114348816Y-46297740D02*
X113047740Y-47598816D01*
X113047740Y-47598816D02*
X115763030Y-50314106D01*
X117085320Y-50335320D02*
X116413568Y-49663568D01*
X113026527Y-46276527D02*
X113698278Y-46948278D01*
D11*
X103356470Y-67462893D02*
X103908013Y-67462893D01*
X104018321Y-67499662D01*
X104091860Y-67573201D01*
X104128630Y-67683510D01*
X104128630Y-67757049D01*
X104128630Y-67095197D02*
X103356470Y-67095197D01*
X103356470Y-66801041D01*
X103393240Y-66727502D01*
X103430009Y-66690733D01*
X103503548Y-66653963D01*
X103613857Y-66653963D01*
X103687396Y-66690733D01*
X103724165Y-66727502D01*
X103760935Y-66801041D01*
X103760935Y-67095197D01*
X103430009Y-66359807D02*
X103393240Y-66323037D01*
X103356470Y-66249498D01*
X103356470Y-66065651D01*
X103393240Y-65992112D01*
X103430009Y-65955342D01*
X103503548Y-65918573D01*
X103577087Y-65918573D01*
X103687396Y-65955342D01*
X104128630Y-66396576D01*
X104128630Y-65918573D01*
X122254070Y-31750493D02*
X122805613Y-31750493D01*
X122915921Y-31787262D01*
X122989460Y-31860801D01*
X123026230Y-31971110D01*
X123026230Y-32044649D01*
X123026230Y-31382797D02*
X122254070Y-31382797D01*
X122254070Y-31088641D01*
X122290840Y-31015102D01*
X122327609Y-30978333D01*
X122401148Y-30941563D01*
X122511457Y-30941563D01*
X122584996Y-30978333D01*
X122621765Y-31015102D01*
X122658535Y-31088641D01*
X122658535Y-31382797D01*
X122511457Y-30279712D02*
X123026230Y-30279712D01*
X122217300Y-30463559D02*
X122768843Y-30647407D01*
X122768843Y-30169403D01*
D12*
X106432380Y-28583333D02*
X107146666Y-28583333D01*
X107289523Y-28630952D01*
X107384761Y-28726190D01*
X107432380Y-28869047D01*
X107432380Y-28964285D01*
X107432380Y-27583333D02*
X107432380Y-28154761D01*
X107432380Y-27869047D02*
X106432380Y-27869047D01*
X106575238Y-27964285D01*
X106670476Y-28059523D01*
X106718095Y-28154761D01*
X113260545Y-42365598D02*
X113361560Y-41793178D01*
X112856484Y-41961537D02*
X113563590Y-41254430D01*
X113832965Y-41523804D01*
X113866636Y-41624819D01*
X113866636Y-41692163D01*
X113832965Y-41793178D01*
X113731949Y-41894193D01*
X113630934Y-41927865D01*
X113563590Y-41927865D01*
X113462575Y-41894193D01*
X113193201Y-41624819D01*
X113933980Y-43039033D02*
X113529919Y-42634972D01*
X113731949Y-42837003D02*
X114439056Y-42129896D01*
X114270697Y-42163568D01*
X114136010Y-42163568D01*
X114034995Y-42129896D01*
X113260545Y-49865598D02*
X113361560Y-49293178D01*
X112856484Y-49461537D02*
X113563590Y-48754430D01*
X113832965Y-49023804D01*
X113866636Y-49124819D01*
X113866636Y-49192163D01*
X113832965Y-49293178D01*
X113731949Y-49394193D01*
X113630934Y-49427865D01*
X113563590Y-49427865D01*
X113462575Y-49394193D01*
X113193201Y-49124819D01*
X114169682Y-49495209D02*
X114237026Y-49495209D01*
X114338041Y-49528880D01*
X114506400Y-49697239D01*
X114540071Y-49798255D01*
X114540071Y-49865598D01*
X114506400Y-49966613D01*
X114439056Y-50033957D01*
X114304369Y-50101300D01*
X113496247Y-50101300D01*
X113933980Y-50539033D01*
M02*
