M48
; DRILL file {KiCad 5.1.4-e60b266~84~ubuntu18.04.1} date Sun 29 Sep 2019 06:28:54 PM EDT
; FORMAT={-:-/ absolute / inch / decimal}
; #@! TF.CreationDate,2019-09-29T18:28:54-04:00
; #@! TF.GenerationSoftware,Kicad,Pcbnew,5.1.4-e60b266~84~ubuntu18.04.1
FMAT,2
INCH
T1C0.0276
T2C0.0394
T3C0.0591
%
G90
G05
T1
X4.4237Y-1.7957
X4.6358Y-2.0079
X4.4237Y-1.5005
X4.6358Y-1.7126
T2
X4.773Y-1.3225
X4.773Y-1.4225
X4.773Y-1.5225
X4.773Y-1.6225
X4.773Y-1.7225
X4.773Y-1.8225
X4.773Y-1.9225
X4.773Y-2.0225
X4.773Y-2.1225
X4.773Y-2.2225
X4.773Y-2.3225
X4.773Y-2.4225
X4.773Y-2.5225
X4.773Y-2.6225
X4.3209Y-1.1122
X4.4209Y-1.1122
X4.5209Y-1.1122
X4.6209Y-1.1122
X4.173Y-1.3225
X4.173Y-1.4225
X4.173Y-1.5225
X4.173Y-1.6225
X4.173Y-1.7225
X4.173Y-1.8225
X4.173Y-1.9225
X4.173Y-2.0225
X4.173Y-2.1225
X4.173Y-2.2225
X4.173Y-2.3225
X4.173Y-2.4225
X4.173Y-2.5225
X4.173Y-2.6225
T3
X4.2913Y-1.3878
X4.311Y-1.8701
T0
M30
